<?xml version="1.0" encoding="UTF-8"?>
<svg id="Capa_2" data-name="Capa 2" xmlns="http://www.w3.org/2000/svg" viewBox="0 0 852.71 852.71">
  <defs>
    <style>
      .cls-1 {
        fill: #d0122a;
      }

      .cls-1, .cls-2 {
        stroke-width: 0px;
      }

      .cls-2 {
        fill: #fff;
      }
    </style>
  </defs>
  <g id="Capa_1-2" data-name="Capa 1">
    <rect class="cls-1" x="0" y="0" width="852.71" height="852.71" rx="426.35" ry="426.35"/>
    <g>
      <polygon class="cls-2" points="688.66 484.07 688.69 436.04 549.73 574.48 532.45 557.22 688.96 400.29 689.32 337.25 500.84 525.61 478.99 503.76 618.65 364.09 585.8 331.62 451.19 466.13 451.19 622.46 627.04 622.46 588.59 584.15 688.66 484.07"/>
      <polygon class="cls-2" points="163.77 484.07 163.74 436.04 302.7 574.48 319.98 557.22 163.85 401.77 163.85 337.99 351.59 525.61 373.44 503.76 231.08 361.4 263.44 329.04 401.24 466.13 401.24 622.46 225.39 622.46 263.84 584.15 163.77 484.07"/>
      <path class="cls-2" d="M501.63,246.2l-24.36,24.36-27.35,27.32-20.32,20.32-55.19-55.19,20.29-20.32,29.43-29.43,17.25,17.25-29.43,29.4,18.26,18.29,27.35-27.35,24.36-24.36-57.97-57.97-3.15,3.12-21.21,21.24-27.35,27.32-20.32,20.32-20.32,20.32,95.97,95.97,20.32-20.32,20.29-20.32,29.43-29.43,18.61,18.61-29.43,29.43-20.32,20.29-20.32,20.32-21.94,21.94-114.55-114.55-21.98,21.89,137.54,137.54,64.28-64.1,20.29-20.32,27.35-27.35,24.29-24.44-59.8-59.8Z"/>
    </g>
  </g>
</svg>