<?xml version="1.0" encoding="UTF-8"?>
<svg id="Capa_2" xmlns="http://www.w3.org/2000/svg" xmlns:xlink="http://www.w3.org/1999/xlink" viewBox="0 0 375.45 664.94">
  <defs>
    <style>
      .cls-1 {
        opacity: .78;
      }

      .cls-2, .cls-3 {
        fill: none;
      }

      .cls-3 {
        stroke: #fff;
        stroke-miterlimit: 10;
        stroke-width: 3px;
      }

      .cls-4 {
        clip-path: url(#clippath);
      }
    </style>
    <clipPath id="clippath">
      <rect class="cls-2" width="375.45" height="664.94"/>
    </clipPath>
  </defs>
  <g id="Capa_1-2" data-name="Capa_1">
    <g class="cls-4">
      <g class="cls-1">
        <polygon class="cls-3" points="372.83 23.75 317.45 23.72 477.07 183.94 457.17 203.86 276.24 23.4 203.55 22.99 420.73 240.3 395.53 265.5 234.5 104.47 197.06 142.35 352.14 297.55 532.39 297.55 532.39 94.8 488.22 139.13 372.83 23.75"/>
        <polygon class="cls-3" points="372.83 628.93 317.45 628.96 477.07 468.75 457.17 448.82 277.94 628.84 204.41 628.84 420.73 412.38 395.53 387.19 231.39 551.32 194.08 514.01 352.14 355.13 532.39 355.13 532.39 557.89 488.22 513.55 372.83 628.93"/>
        <path class="cls-3" d="M98.58,239.39l28.09,28.09,31.5,31.53,23.42,23.42-63.63,63.63-23.42-23.39-33.93-33.93,19.89-19.89,33.89,33.93,21.09-21.05-31.53-31.53-28.09-28.09L9.02,328.95l3.6,3.63,24.49,24.46,31.5,31.53,23.42,23.42,23.42,23.42,110.65-110.65-23.42-23.42-23.42-23.39-33.93-33.93,21.46-21.46,33.93,33.93,23.39,23.42,23.42,23.42,25.29,25.29-132.07,132.07,25.24,25.34,158.57-158.57-73.9-74.11-23.42-23.39-31.53-31.53-28.18-28-68.95,68.95Z"/>
      </g>
    </g>
  </g>
</svg>