<?xml version="1.0" encoding="UTF-8"?>
<svg id="Capa_2" xmlns="http://www.w3.org/2000/svg" viewBox="0 0 391.68 392.46">
  <defs>
    <style>
      .cls-1 {
        fill: #d0122a;
      }
    </style>
  </defs>
  <g id="Capa_1-2" data-name="Capa_1">
    <g>
      <polygon class="cls-1" points="40.21 315.2 65.36 340.37 65.64 195.05 83.73 195.04 83.95 359.24 116.79 392.46 116.85 195.04 139.74 195.04 139.75 341.37 173.97 341.18 174.03 200.19 92.13 118.29 0 210.42 40.21 210.34 40.21 315.2"/>
      <polygon class="cls-1" points="315.2 40.21 340.37 65.36 195.05 65.64 195.04 83.73 358.27 83.37 391.68 116.79 195.04 116.85 195.04 139.74 344.2 139.75 344.2 173.65 200.19 174.03 118.29 92.13 210.42 0 210.34 40.21 315.2 40.21"/>
      <path class="cls-1" d="M262.81,341.83v-25.53s.01-28.64.01-28.64v-21.29h57.83v21.27s.02,30.83.02,30.83h-18.07s.01-30.82.01-30.82l-19.15-.02v28.66s0,25.53,0,25.53h60.74v-3.28s0-22.24,0-22.24v-28.64s.01-21.29.01-21.29v-21.29s-100.55,0-100.55,0v21.29s.01,21.27.01,21.27v30.83s-19.5,0-19.5,0v-30.83s.02-21.27.02-21.27v-21.29s0-22.98,0-22.98h120.02s.04-22.98.04-22.98h-144.1s-.1,67.26-.1,67.26v21.27s.02,28.66.02,28.66l.08,25.53h62.66Z"/>
    </g>
  </g>
</svg>