<?xml version="1.0" encoding="UTF-8"?>
<svg id="Capa_2" data-name="Capa 2" xmlns="http://www.w3.org/2000/svg" xmlns:xlink="http://www.w3.org/1999/xlink" viewBox="0 0 374.91 188.51">
  <defs>
    <style>
      .cls-1 {
        fill: none;
      }

      .cls-1, .cls-2 {
        stroke-width: 0px;
      }

      .cls-3 {
        clip-path: url(#clippath);
      }

      .cls-2 {
        fill: #d0122a;
      }
    </style>
    <clipPath id="clippath">
      <rect class="cls-1" width="374.91" height="188.51"/>
    </clipPath>
  </defs>
  <g id="Capa_1-2" data-name="Capa 1">
    <g class="cls-3">
      <path class="cls-2" d="M295.87,112.79l-34.16,34.16-38.35,38.31-28.49,28.49-77.39-77.39,28.45-28.49,41.26-41.26,24.19,24.19-41.26,41.22,25.61,25.65,38.35-38.35,34.16-34.16L186.95,3.87l-4.41,4.37-29.75,29.79-38.35,38.31-28.49,28.49-28.49,28.49,134.57,134.57,28.49-28.49,28.45-28.49,41.26-41.26,26.09,26.09-41.26,41.26-28.49,28.45-28.49,28.49-30.76,30.76L26.71,164.08l-30.82,30.7,192.86,192.86,90.14-89.88,28.45-28.49,38.35-38.35,34.05-34.27-83.86-83.86Z"/>
    </g>
  </g>
</svg>